<?xml version="1.0" encoding="UTF-8" standalone="no"?>
<svg
   xmlns:dc="http://purl.org/dc/elements/1.1/"
   xmlns:cc="http://creativecommons.org/ns#"
   xmlns:rdf="http://www.w3.org/1999/02/22-rdf-syntax-ns#"
   xmlns:svg="http://www.w3.org/2000/svg"
   xmlns="http://www.w3.org/2000/svg"
   xmlns:xlink="http://www.w3.org/1999/xlink"
   xmlns:sodipodi="http://sodipodi.sourceforge.net/DTD/sodipodi-0.dtd"
   xmlns:inkscape="http://www.inkscape.org/namespaces/inkscape"
   version="1.2"
   width="15.491686mm"
   height="9.7565222mm"
   viewBox="0 0 8.8156249 5.5519999"
   id="svg6414"
   sodipodi:docname="016gs2.svg"
   inkscape:version="0.92.4 (5da689c313, 2019-01-14)">
  <metadata
     id="metadata6420">
    <rdf:RDF>
      <cc:Work
         rdf:about="">
        <dc:format>image/svg+xml</dc:format>
        <dc:type
           rdf:resource="http://purl.org/dc/dcmitype/StillImage" />
        <dc:title></dc:title>
      </cc:Work>
    </rdf:RDF>
  </metadata>
  <defs
     id="defs6418" />
  <sodipodi:namedview
     pagecolor="#ffffff"
     bordercolor="#666666"
     borderopacity="1"
     objecttolerance="10"
     gridtolerance="10"
     guidetolerance="10"
     inkscape:pageopacity="0"
     inkscape:pageshadow="2"
     inkscape:window-width="640"
     inkscape:window-height="480"
     id="namedview6416"
     showgrid="false"
     fit-margin-top="0"
     fit-margin-left="0"
     fit-margin-right="0"
     fit-margin-bottom="0"
     inkscape:zoom="0.60132576"
     inkscape:cx="302.36681"
     inkscape:cy="-166.24682"
     inkscape:window-x="0"
     inkscape:window-y="0"
     inkscape:window-maximized="0"
     inkscape:current-layer="svg6414" />
  <!-- Page: 1/1 -->
  <text
     font-size="2.2001"
     id="text6390"
     style="font-size:2.20009995px;font-family:'Century Schoolbook L';text-anchor:start;fill:currentColor"
     x="-8.5350876"
     y="-1">
    <tspan
       id="tspan6388" />
  </text>
  <g
     id="g6431"
     transform="translate(-14.225688,-3.8453)">
    <line
       id="line6392"
       y2="0"
       x2="8.7642002"
       y1="0"
       x1="0.050000001"
       transform="translate(14.2264,7.8973)"
       style="stroke:currentColor;stroke-width:0.1;stroke-linecap:round;stroke-linejoin:round" />
    <line
       id="line6394"
       y2="0"
       x2="8.7642002"
       y1="0"
       x1="0.050000001"
       transform="translate(14.2264,6.8973)"
       style="stroke:currentColor;stroke-width:0.1;stroke-linecap:round;stroke-linejoin:round" />
    <line
       id="line6396"
       y2="0"
       x2="8.7642002"
       y1="0"
       x1="0.050000001"
       transform="translate(14.2264,5.8973)"
       style="stroke:currentColor;stroke-width:0.1;stroke-linecap:round;stroke-linejoin:round" />
    <line
       id="line6398"
       y2="0"
       x2="8.7642002"
       y1="0"
       x1="0.050000001"
       transform="translate(14.2264,4.8973)"
       style="stroke:currentColor;stroke-width:0.1;stroke-linecap:round;stroke-linejoin:round" />
    <line
       id="line6400"
       y2="0"
       x2="8.7642002"
       y1="0"
       x1="0.050000001"
       transform="translate(14.2264,3.8973)"
       style="stroke:currentColor;stroke-width:0.1;stroke-linecap:round;stroke-linejoin:round" />
    <path
       id="path6402"
       d="m 557,-125 c 0,28 23,51 51,51 28,0 51,-23 51,-51 0,-28 -23,-51 -51,-51 -28,0 -51,23 -51,51 z m 0,250 c 0,28 23,51 51,51 28,0 51,-23 51,-51 0,-28 -23,-51 -51,-51 -28,0 -51,23 -51,51 z M 232,263 c 172,0 293,-88 293,-251 0,-263 -263,-414 -516,-521 -3,-3 -6,-4 -9,-4 -7,0 -13,6 -13,13 0,3 1,6 4,9 202,118 412,265 412,493 0,120 -63,235 -171,235 -74,0 -129,-54 -154,-126 11,5 22,8 34,8 C 167,119 212,74 212,19 212,-39 168,-87 112,-87 52,-87 0,-40 0,19 0,152 102,263 232,263 Z"
       transform="matrix(0.004,0,0,-0.004,15.0264,4.8973)"
       inkscape:connector-curvature="0"
       style="fill:currentColor" />
    <a
       id="a6406"
       xlink:href="textedit:///Users/jyang/Documents/github/pitlOS/lilypond/016gs2.ly:11:2:3"
       style="color:inherit">
      <path
         id="path6404"
         d="m 220,138 c 56,0 109,-29 109,-91 0,-72 -56,-121 -103,-149 -36,-21 -76,-36 -117,-36 -56,0 -109,29 -109,91 0,72 56,121 103,149 36,21 76,36 117,36 z"
         transform="matrix(0.004,0,0,-0.004,20.0264,7.8973)"
         inkscape:connector-curvature="0"
         style="fill:currentColor" />
    </a>
    <path
       id="path6408"
       d="m 216,-312 c 0,-10 -8,-19 -18,-19 -10,0 -19,9 -19,19 v 145 l -83,-31 v -158 c 0,-10 -9,-19 -19,-19 -10,0 -18,9 -18,19 v 145 l -32,-12 c -2,-1 -5,-1 -7,-1 -11,0 -20,9 -20,20 v 60 c 0,8 5,16 13,19 l 46,16 V 51 L 27,40 C 25,39 22,39 20,39 9,39 0,48 0,59 v 60 c 0,8 5,15 13,18 l 46,17 v 158 c 0,10 8,19 18,19 10,0 19,-9 19,-19 V 167 l 83,31 v 158 c 0,10 9,19 19,19 10,0 18,-9 18,-19 V 211 l 32,12 c 2,1 5,1 7,1 11,0 20,-9 20,-20 v -60 c 0,-8 -5,-16 -13,-19 L 216,109 V -51 l 32,11 c 2,1 5,1 7,1 11,0 20,-9 20,-20 v -60 c 0,-8 -5,-15 -13,-18 l -46,-17 z M 96,65 V -95 l 83,30 V 95 Z"
       transform="matrix(0.004,0,0,-0.004,18.5764,7.8973)"
       inkscape:connector-curvature="0"
       style="fill:currentColor" />
  </g>
  <text
     font-size="2.2001"
     id="text6412"
     style="font-size:2.20009995px;font-family:'Century Schoolbook L';text-anchor:start;fill:currentColor"
     x="45.525112"
     y="161.74969">
    <tspan
       id="tspan6410" />
  </text>
</svg>
