<?xml version="1.0" encoding="UTF-8" standalone="no"?>
<svg
   xmlns:dc="http://purl.org/dc/elements/1.1/"
   xmlns:cc="http://creativecommons.org/ns#"
   xmlns:rdf="http://www.w3.org/1999/02/22-rdf-syntax-ns#"
   xmlns:svg="http://www.w3.org/2000/svg"
   xmlns="http://www.w3.org/2000/svg"
   xmlns:xlink="http://www.w3.org/1999/xlink"
   xmlns:sodipodi="http://sodipodi.sourceforge.net/DTD/sodipodi-0.dtd"
   xmlns:inkscape="http://www.inkscape.org/namespaces/inkscape"
   version="1.2"
   width="15.491685mm"
   height="11.264294mm"
   viewBox="0 0 8.8156244 6.4100051"
   id="svg184"
   sodipodi:docname="058_5bqf3.svg"
   inkscape:version="0.92.4 (5da689c313, 2019-01-14)">
  <metadata
     id="metadata190">
    <rdf:RDF>
      <cc:Work
         rdf:about="">
        <dc:format>image/svg+xml</dc:format>
        <dc:type
           rdf:resource="http://purl.org/dc/dcmitype/StillImage" />
        <dc:title></dc:title>
      </cc:Work>
    </rdf:RDF>
  </metadata>
  <defs
     id="defs188" />
  <sodipodi:namedview
     pagecolor="#ffffff"
     bordercolor="#666666"
     borderopacity="1"
     objecttolerance="10"
     gridtolerance="10"
     guidetolerance="10"
     inkscape:pageopacity="0"
     inkscape:pageshadow="2"
     inkscape:window-width="882"
     inkscape:window-height="880"
     id="namedview186"
     showgrid="false"
     fit-margin-top="0"
     fit-margin-left="0"
     fit-margin-right="0"
     fit-margin-bottom="0"
     inkscape:zoom="0.60132576"
     inkscape:cx="302.36681"
     inkscape:cy="-493.14658"
     inkscape:window-x="0"
     inkscape:window-y="0"
     inkscape:window-maximized="0"
     inkscape:current-layer="svg184" />
  <!-- Page: 1/1 -->
  <text
     font-size="2.2001"
     id="text160"
     style="font-size:2.20009995px;font-family:'Century Schoolbook L';text-anchor:start;fill:currentColor"
     x="-8.5350876"
     y="-1">
    <tspan
       id="tspan158" />
  </text>
  <line
     x1="0.050712124"
     y1="6.3600001"
     x2="8.7649126"
     y2="6.3600001"
     id="line162"
     style="stroke:currentColor;stroke-width:0.1;stroke-linecap:round;stroke-linejoin:round" />
  <line
     x1="0.050712124"
     y1="5.3600001"
     x2="8.7649126"
     y2="5.3600001"
     id="line164"
     style="stroke:currentColor;stroke-width:0.1;stroke-linecap:round;stroke-linejoin:round" />
  <line
     x1="0.050712124"
     y1="4.3600001"
     x2="8.7649126"
     y2="4.3600001"
     id="line166"
     style="stroke:currentColor;stroke-width:0.1;stroke-linecap:round;stroke-linejoin:round" />
  <line
     x1="0.050712124"
     y1="3.3599999"
     x2="8.7649126"
     y2="3.3599999"
     id="line168"
     style="stroke:currentColor;stroke-width:0.1;stroke-linecap:round;stroke-linejoin:round" />
  <line
     x1="0.050712124"
     y1="2.3599999"
     x2="8.7649126"
     y2="2.3599999"
     id="line170"
     style="stroke:currentColor;stroke-width:0.1;stroke-linecap:round;stroke-linejoin:round" />
  <path
     d="m 3.0287121,3.86 c 0,-0.112 0.092,-0.204 0.204,-0.204 0.112,0 0.204,0.092 0.204,0.204 0,0.112 -0.092,0.204 -0.204,0.204 -0.112,0 -0.204,-0.092 -0.204,-0.204 z m 0,-1 c 0,-0.112 0.092,-0.204 0.204,-0.204 0.112,0 0.204,0.092 0.204,0.204 0,0.112 -0.092,0.204 -0.204,0.204 -0.112,0 -0.204,-0.092 -0.204,-0.204 z m -1.3,-0.552 c 0.688,0 1.172,0.352 1.172,1.004 0,1.052 -1.052,1.656 -2.06399998,2.084 -0.012,0.012 -0.024,0.016 -0.036,0.016 -0.028,0 -0.052,-0.024 -0.052,-0.052 0,-0.012 0.004,-0.024 0.016,-0.036 C 1.5727121,4.852 2.4127121,4.264 2.4127121,3.352 c 0,-0.48 -0.252,-0.94 -0.684,-0.94 -0.296,0 -0.516,0.216 -0.616,0.504 0.044,-0.02 0.088,-0.032 0.136,-0.032 0.22,0 0.4,0.18 0.4,0.4 0,0.232 -0.176,0.424 -0.4,0.424 -0.24,0 -0.44799998,-0.188 -0.44799998,-0.424 0,-0.532 0.40799998,-0.976 0.92799998,-0.976 z"
     id="path172"
     inkscape:connector-curvature="0"
     style="fill:currentColor;stroke-width:0.004" />
  <a
     style="color:inherit"
     xlink:href="textedit:///Users/jyang/Documents/github/prolonged_into_the_latent/archive/2019_10_08-pitlOS/lilypond/058_5bqf3.ly:11:2:3"
     id="a176"
     transform="translate(-14.225688,-3.8453)">
    <path
       transform="matrix(0.004,0,0,-0.004,20.0264,5.7053)"
       d="m 220,138 c 56,0 109,-29 109,-91 0,-72 -56,-121 -103,-149 -36,-21 -76,-36 -117,-36 -56,0 -109,29 -109,91 0,72 56,121 103,149 36,21 76,36 117,36 z"
       id="path174"
       inkscape:connector-curvature="0"
       style="fill:currentColor" />
  </a>
  <path
     d="m 5.2539121,1.696 c -0.004,-0.132 -0.088,-0.252 -0.212,-0.252 -0.116,0 -0.172,0.136 -0.172,0.268 0,0.236 0.192,0.404 0.372,0.556 0.012,-0.088 0.016,-0.176 0.016,-0.264 V 1.96 Z m 0.168,0.716 c 0,0.056 -0.04,0.1 -0.092,0.1 -0.084,0 -0.12,-0.1 -0.18,-0.152 -0.244,-0.208 -0.588,-0.356 -0.588,-0.676 0,-0.216 0.148,-0.408 0.356,-0.408 0.132,0 0.264,0.052 0.364,0.136 l -0.028,-1.38 c 0.032,-0.02 0.072,-0.032 0.108,-0.032 0.036,0 0.076,0.012 0.108,0.032 z"
     id="path178"
     inkscape:connector-curvature="0"
     style="fill:currentColor;stroke-width:0.004" />
  <text
     font-size="2.2001"
     id="text182"
     style="font-size:2.20009995px;font-family:'Century Schoolbook L';text-anchor:start;fill:currentColor"
     x="45.525112"
     y="161.74969">
    <tspan
       id="tspan180" />
  </text>
</svg>
