<?xml version="1.0" encoding="UTF-8" standalone="no"?>
<svg
   xmlns:dc="http://purl.org/dc/elements/1.1/"
   xmlns:cc="http://creativecommons.org/ns#"
   xmlns:rdf="http://www.w3.org/1999/02/22-rdf-syntax-ns#"
   xmlns:svg="http://www.w3.org/2000/svg"
   xmlns="http://www.w3.org/2000/svg"
   xmlns:xlink="http://www.w3.org/1999/xlink"
   xmlns:sodipodi="http://sodipodi.sourceforge.net/DTD/sodipodi-0.dtd"
   xmlns:inkscape="http://www.inkscape.org/namespaces/inkscape"
   version="1.2"
   width="15.491685mm"
   height="13.397645mm"
   viewBox="0 0 8.8156244 7.6239998"
   id="svg11190"
   sodipodi:docname="052dqs4.svg"
   inkscape:version="0.92.4 (5da689c313, 2019-01-14)">
  <metadata
     id="metadata11196">
    <rdf:RDF>
      <cc:Work
         rdf:about="">
        <dc:format>image/svg+xml</dc:format>
        <dc:type
           rdf:resource="http://purl.org/dc/dcmitype/StillImage" />
        <dc:title></dc:title>
      </cc:Work>
    </rdf:RDF>
  </metadata>
  <defs
     id="defs11194" />
  <sodipodi:namedview
     pagecolor="#ffffff"
     bordercolor="#666666"
     borderopacity="1"
     objecttolerance="10"
     gridtolerance="10"
     guidetolerance="10"
     inkscape:pageopacity="0"
     inkscape:pageshadow="2"
     inkscape:window-width="640"
     inkscape:window-height="480"
     id="namedview11192"
     showgrid="false"
     fit-margin-top="0"
     fit-margin-left="0"
     fit-margin-right="0"
     fit-margin-bottom="0"
     inkscape:zoom="0.60132576"
     inkscape:cx="302.36681"
     inkscape:cy="113.59365"
     inkscape:window-x="0"
     inkscape:window-y="0"
     inkscape:window-maximized="0"
     inkscape:current-layer="svg11190" />
  <!-- Page: 1/1 -->
  <text
     font-size="2.2001"
     id="text11166"
     style="font-size:2.20009995px;font-family:'Century Schoolbook L';text-anchor:start;fill:currentColor"
     x="-8.5350876"
     y="-1">
    <tspan
       id="tspan11164" />
  </text>
  <g
     id="g11207"
     transform="translate(-14.225688,-3.8453)">
    <line
       id="line11168"
       y2="0"
       x2="8.7642002"
       y1="0"
       x1="0.050000001"
       transform="translate(14.2264,9.6213)"
       style="stroke:currentColor;stroke-width:0.1;stroke-linecap:round;stroke-linejoin:round" />
    <line
       id="line11170"
       y2="0"
       x2="8.7642002"
       y1="0"
       x1="0.050000001"
       transform="translate(14.2264,8.6213)"
       style="stroke:currentColor;stroke-width:0.1;stroke-linecap:round;stroke-linejoin:round" />
    <line
       id="line11172"
       y2="0"
       x2="8.7642002"
       y1="0"
       x1="0.050000001"
       transform="translate(14.2264,7.6213)"
       style="stroke:currentColor;stroke-width:0.1;stroke-linecap:round;stroke-linejoin:round" />
    <line
       id="line11174"
       y2="0"
       x2="8.7642002"
       y1="0"
       x1="0.050000001"
       transform="translate(14.2264,6.6213)"
       style="stroke:currentColor;stroke-width:0.1;stroke-linecap:round;stroke-linejoin:round" />
    <line
       id="line11176"
       y2="0"
       x2="8.7642002"
       y1="0"
       x1="0.050000001"
       transform="translate(14.2264,5.6213)"
       style="stroke:currentColor;stroke-width:0.1;stroke-linecap:round;stroke-linejoin:round" />
    <path
       id="path11178"
       d="m 376,262 c 4,0 9,1 13,1 155,0 256,-128 256,-261 0,-76 -33,-154 -107,-210 -22,-17 -47,-28 -73,-36 3,-35 5,-70 5,-105 0,-19 -1,-39 -2,-58 -7,-120 -90,-228 -208,-228 -108,0 -195,88 -195,197 0,58 53,103 112,103 54,0 95,-47 95,-103 0,-52 -43,-95 -95,-95 -11,0 -21,2 -31,6 26,-39 68,-65 117,-65 96,0 157,92 163,191 1,18 2,37 2,55 0,31 -1,61 -4,92 -29,-5 -58,-8 -89,-8 -188,0 -333,172 -333,374 0,177 131,306 248,441 -19,62 -37,125 -45,190 -6,52 -7,104 -7,156 0,115 55,224 149,292 3,2 7,3 10,3 4,0 7,0 10,-3 71,-84 133,-245 133,-358 0,-143 -86,-255 -180,-364 21,-68 39,-138 56,-207 z m 85,-465 c 68,24 113,95 113,164 0,90 -66,179 -173,190 24,-116 46,-231 60,-354 z M 74,28 c 0,-135 129,-247 264,-247 28,0 55,2 82,6 C 406,-86 383,32 357,151 278,143 233,90 233,32 c 0,-44 25,-91 81,-123 5,-5 7,-10 7,-15 0,-11 -10,-22 -22,-22 -3,0 -6,1 -9,2 -80,43 -117,115 -117,185 0,88 58,174 160,197 -14,58 -29,117 -46,175 C 180,310 74,188 74,28 Z M 408,1045 C 309,997 246,896 246,786 c 0,-74 18,-133 36,-194 80,97 146,198 146,324 0,55 -4,79 -20,129 z"
       transform="matrix(0.004,0,0,-0.004,15.0264,8.6213)"
       inkscape:connector-curvature="0"
       style="fill:currentColor" />
    <a
       id="a11182"
       xlink:href="textedit:///Users/jyang/Documents/github/pitlOS/lilypond/052dqs4.ly:11:2:3"
       style="color:inherit">
      <path
         id="path11180"
         d="m 220,138 c 56,0 109,-29 109,-91 0,-72 -56,-121 -103,-149 -36,-21 -76,-36 -117,-36 -56,0 -109,29 -109,91 0,72 56,121 103,149 36,21 76,36 117,36 z"
         transform="matrix(0.004,0,0,-0.004,20.0264,10.1213)"
         inkscape:connector-curvature="0"
         style="fill:currentColor" />
    </a>
    <path
       id="path11184"
       d="m 106,-318 c 0,-10 -8,-19 -18,-19 -10,0 -19,9 -19,19 v 123 l -39,-22 c -3,-2 -7,-3 -10,-3 -10,0 -20,8 -20,20 v 60 c 0,7 4,14 10,18 l 59,33 V 67 L 30,45 C 27,43 23,43 20,43 10,43 0,51 0,63 v 60 c 0,7 4,13 10,17 l 59,34 v 144 c 0,10 9,19 19,19 10,0 18,-9 18,-19 V 195 l 39,22 c 3,2 7,3 10,3 10,0 20,-8 20,-20 v -60 c 0,-7 -4,-14 -10,-18 L 106,89 V -67 l 39,22 c 3,2 7,2 10,2 10,0 20,-8 20,-20 v -60 c 0,-7 -4,-13 -10,-17 l -59,-34 z"
       transform="matrix(0.004,0,0,-0.004,18.9764,10.1213)"
       inkscape:connector-curvature="0"
       style="fill:currentColor" />
  </g>
  <text
     font-size="2.2001"
     id="text11188"
     style="font-size:2.20009995px;font-family:'Century Schoolbook L';text-anchor:start;fill:currentColor"
     x="45.525112"
     y="161.74969">
    <tspan
       id="tspan11186" />
  </text>
</svg>
