<?xml version="1.0" encoding="UTF-8" standalone="no"?>
<svg
   xmlns:dc="http://purl.org/dc/elements/1.1/"
   xmlns:cc="http://creativecommons.org/ns#"
   xmlns:rdf="http://www.w3.org/1999/02/22-rdf-syntax-ns#"
   xmlns:svg="http://www.w3.org/2000/svg"
   xmlns="http://www.w3.org/2000/svg"
   xmlns:xlink="http://www.w3.org/1999/xlink"
   xmlns:sodipodi="http://sodipodi.sourceforge.net/DTD/sodipodi-0.dtd"
   xmlns:inkscape="http://www.inkscape.org/namespaces/inkscape"
   version="1.2"
   width="15.491686mm"
   height="12.856398mm"
   viewBox="0 0 8.8156249 7.3160001"
   id="svg108"
   sodipodi:docname="057fs4.svg"
   inkscape:version="0.92.4 (5da689c313, 2019-01-14)">
  <metadata
     id="metadata114">
    <rdf:RDF>
      <cc:Work
         rdf:about="">
        <dc:format>image/svg+xml</dc:format>
        <dc:type
           rdf:resource="http://purl.org/dc/dcmitype/StillImage" />
        <dc:title></dc:title>
      </cc:Work>
    </rdf:RDF>
  </metadata>
  <defs
     id="defs112" />
  <sodipodi:namedview
     pagecolor="#ffffff"
     bordercolor="#666666"
     borderopacity="1"
     objecttolerance="10"
     gridtolerance="10"
     guidetolerance="10"
     inkscape:pageopacity="0"
     inkscape:pageshadow="2"
     inkscape:window-width="640"
     inkscape:window-height="480"
     id="namedview110"
     showgrid="false"
     fit-margin-top="0"
     fit-margin-left="0"
     fit-margin-right="0"
     fit-margin-bottom="0"
     inkscape:zoom="0.60132576"
     inkscape:cx="368.88649"
     inkscape:cy="-21.491383"
     inkscape:window-x="0"
     inkscape:window-y="0"
     inkscape:window-maximized="0"
     inkscape:current-layer="svg108" />
  <!-- Page: 1/1 -->
  <text
     font-size="2.2001"
     id="text84"
     style="font-size:2.20009995px;font-family:'Century Schoolbook L';text-anchor:start;fill:currentColor"
     x="-8.5350876"
     y="-1">
    <tspan
       id="tspan82" />
  </text>
  <g
     id="g125"
     transform="translate(-14.225688,-3.8453)">
    <line
       id="line86"
       y2="0"
       x2="8.7642002"
       y1="0"
       x1="0.050000001"
       transform="translate(14.2264,9.6213)"
       style="stroke:currentColor;stroke-width:0.1;stroke-linecap:round;stroke-linejoin:round" />
    <line
       id="line88"
       y2="0"
       x2="8.7642002"
       y1="0"
       x1="0.050000001"
       transform="translate(14.2264,8.6213)"
       style="stroke:currentColor;stroke-width:0.1;stroke-linecap:round;stroke-linejoin:round" />
    <line
       id="line90"
       y2="0"
       x2="8.7642002"
       y1="0"
       x1="0.050000001"
       transform="translate(14.2264,7.6213)"
       style="stroke:currentColor;stroke-width:0.1;stroke-linecap:round;stroke-linejoin:round" />
    <line
       id="line92"
       y2="0"
       x2="8.7642002"
       y1="0"
       x1="0.050000001"
       transform="translate(14.2264,6.6213)"
       style="stroke:currentColor;stroke-width:0.1;stroke-linecap:round;stroke-linejoin:round" />
    <line
       id="line94"
       y2="0"
       x2="8.7642002"
       y1="0"
       x1="0.050000001"
       transform="translate(14.2264,5.6213)"
       style="stroke:currentColor;stroke-width:0.1;stroke-linecap:round;stroke-linejoin:round" />
    <path
       id="path96"
       d="m 376,262 c 4,0 9,1 13,1 155,0 256,-128 256,-261 0,-76 -33,-154 -107,-210 -22,-17 -47,-28 -73,-36 3,-35 5,-70 5,-105 0,-19 -1,-39 -2,-58 -7,-120 -90,-228 -208,-228 -108,0 -195,88 -195,197 0,58 53,103 112,103 54,0 95,-47 95,-103 0,-52 -43,-95 -95,-95 -11,0 -21,2 -31,6 26,-39 68,-65 117,-65 96,0 157,92 163,191 1,18 2,37 2,55 0,31 -1,61 -4,92 -29,-5 -58,-8 -89,-8 -188,0 -333,172 -333,374 0,177 131,306 248,441 -19,62 -37,125 -45,190 -6,52 -7,104 -7,156 0,115 55,224 149,292 3,2 7,3 10,3 4,0 7,0 10,-3 71,-84 133,-245 133,-358 0,-143 -86,-255 -180,-364 21,-68 39,-138 56,-207 z m 85,-465 c 68,24 113,95 113,164 0,90 -66,179 -173,190 24,-116 46,-231 60,-354 z M 74,28 c 0,-135 129,-247 264,-247 28,0 55,2 82,6 C 406,-86 383,32 357,151 278,143 233,90 233,32 c 0,-44 25,-91 81,-123 5,-5 7,-10 7,-15 0,-11 -10,-22 -22,-22 -3,0 -6,1 -9,2 -80,43 -117,115 -117,185 0,88 58,174 160,197 -14,58 -29,117 -46,175 C 180,310 74,188 74,28 Z M 408,1045 C 309,997 246,896 246,786 c 0,-74 18,-133 36,-194 80,97 146,198 146,324 0,55 -4,79 -20,129 z"
       transform="matrix(0.004,0,0,-0.004,15.0264,8.6213)"
       inkscape:connector-curvature="0"
       style="fill:currentColor" />
    <a
       id="a100"
       xlink:href="textedit:///Users/jyang/Documents/github/pitlOS/lilypond/057fs4.ly:11:2:3"
       style="color:inherit">
      <path
         id="path98"
         d="m 220,138 c 56,0 109,-29 109,-91 0,-72 -56,-121 -103,-149 -36,-21 -76,-36 -117,-36 -56,0 -109,29 -109,91 0,72 56,121 103,149 36,21 76,36 117,36 z"
         transform="matrix(0.004,0,0,-0.004,20.0264,9.1213)"
         inkscape:connector-curvature="0"
         style="fill:currentColor" />
    </a>
    <path
       id="path102"
       d="m 216,-312 c 0,-10 -8,-19 -18,-19 -10,0 -19,9 -19,19 v 145 l -83,-31 v -158 c 0,-10 -9,-19 -19,-19 -10,0 -18,9 -18,19 v 145 l -32,-12 c -2,-1 -5,-1 -7,-1 -11,0 -20,9 -20,20 v 60 c 0,8 5,16 13,19 l 46,16 V 51 L 27,40 C 25,39 22,39 20,39 9,39 0,48 0,59 v 60 c 0,8 5,15 13,18 l 46,17 v 158 c 0,10 8,19 18,19 10,0 19,-9 19,-19 V 167 l 83,31 v 158 c 0,10 9,19 19,19 10,0 18,-9 18,-19 V 211 l 32,12 c 2,1 5,1 7,1 11,0 20,-9 20,-20 v -60 c 0,-8 -5,-16 -13,-19 L 216,109 V -51 l 32,11 c 2,1 5,1 7,1 11,0 20,-9 20,-20 v -60 c 0,-8 -5,-15 -13,-18 l -46,-17 z M 96,65 V -95 l 83,30 V 95 Z"
       transform="matrix(0.004,0,0,-0.004,18.5764,9.1213)"
       inkscape:connector-curvature="0"
       style="fill:currentColor" />
  </g>
  <text
     font-size="2.2001"
     id="text106"
     style="font-size:2.20009995px;font-family:'Century Schoolbook L';text-anchor:start;fill:currentColor"
     x="45.525112"
     y="161.74969">
    <tspan
       id="tspan104" />
  </text>
</svg>
