<?xml version="1.0" encoding="UTF-8" standalone="no"?>
<svg
   xmlns:dc="http://purl.org/dc/elements/1.1/"
   xmlns:cc="http://creativecommons.org/ns#"
   xmlns:rdf="http://www.w3.org/1999/02/22-rdf-syntax-ns#"
   xmlns:svg="http://www.w3.org/2000/svg"
   xmlns="http://www.w3.org/2000/svg"
   xmlns:xlink="http://www.w3.org/1999/xlink"
   xmlns:sodipodi="http://sodipodi.sourceforge.net/DTD/sodipodi-0.dtd"
   xmlns:inkscape="http://www.inkscape.org/namespaces/inkscape"
   version="1.2"
   width="15.491685mm"
   height="9.5069942mm"
   viewBox="0 0 8.8156244 5.4100047"
   id="svg2749"
   sodipodi:docname="075ef5.svg"
   inkscape:version="0.92.4 (5da689c313, 2019-01-14)">
  <metadata
     id="metadata2755">
    <rdf:RDF>
      <cc:Work
         rdf:about="">
        <dc:format>image/svg+xml</dc:format>
        <dc:type
           rdf:resource="http://purl.org/dc/dcmitype/StillImage" />
        <dc:title></dc:title>
      </cc:Work>
    </rdf:RDF>
  </metadata>
  <defs
     id="defs2753" />
  <sodipodi:namedview
     pagecolor="#ffffff"
     bordercolor="#666666"
     borderopacity="1"
     objecttolerance="10"
     gridtolerance="10"
     guidetolerance="10"
     inkscape:pageopacity="0"
     inkscape:pageshadow="2"
     inkscape:window-width="640"
     inkscape:window-height="480"
     id="namedview2751"
     showgrid="false"
     fit-margin-top="0"
     fit-margin-left="0"
     fit-margin-right="0"
     fit-margin-bottom="0"
     inkscape:zoom="0.60132576"
     inkscape:cx="302.36681"
     inkscape:cy="-97.907258"
     inkscape:window-x="0"
     inkscape:window-y="0"
     inkscape:window-maximized="0"
     inkscape:current-layer="svg2749" />
  <!-- Page: 1/1 -->
  <text
     font-size="2.2001"
     id="text2725"
     style="font-size:2.20009995px;font-family:'Century Schoolbook L';text-anchor:start;fill:currentColor"
     x="-8.5350876"
     y="-1.416">
    <tspan
       id="tspan2723" />
  </text>
  <path
     d="m 2.3047121,3.312 c 0.016,0 0.036,-0.004 0.052,-0.004 0.62,0 1.024,0.512 1.024,1.044 0,0.304 -0.132,0.616 -0.428,0.84 -0.088,0.068 -0.188,0.112 -0.292,0.144 0.012,0.14 0.02,0.28 0.02,0.42 0,0.076 -0.004,0.156 -0.008,0.232 -0.028,0.48 -0.36,0.912 -0.832,0.912 -0.432,0 -0.78,-0.352 -0.78,-0.788 0,-0.232 0.212,-0.412 0.448,-0.412 0.216,0 0.38,0.188 0.38,0.412 0,0.208 -0.172,0.38 -0.38,0.38 -0.044,0 -0.084,-0.008 -0.124,-0.024 0.104,0.156 0.272,0.26 0.468,0.26 0.384,0 0.628,-0.368 0.652,-0.764 0.004,-0.072 0.008,-0.148 0.008,-0.22 0,-0.124 -0.004,-0.244 -0.016,-0.368 -0.116,0.02 -0.232,0.032 -0.356,0.032 -0.752,0 -1.33199998,-0.688 -1.33199998,-1.496 0,-0.708 0.52399998,-1.224 0.99199998,-1.764 -0.076,-0.248 -0.148,-0.5 -0.18,-0.76 -0.024,-0.208 -0.028,-0.416 -0.028,-0.624 0,-0.46 0.22,-0.896 0.596,-1.168 0.012,-0.008 0.028,-0.012 0.04,-0.012 0.016,0 0.028,0 0.04,0.012 0.284,0.336 0.532,0.98 0.532,1.432 0,0.572 -0.344,1.02 -0.72,1.456 0.084,0.272 0.156,0.552 0.224,0.828 z m 0.34,1.86 c 0.272,-0.096 0.452,-0.38 0.452,-0.656 0,-0.36 -0.264,-0.716 -0.692,-0.76 0.096,0.464 0.184,0.924 0.24,1.416 z m -1.548,-0.924 c 0,0.54 0.516,0.988 1.056,0.988 0.112,0 0.22,-0.008 0.328,-0.024 -0.056,-0.508 -0.148,-0.98 -0.252,-1.456 -0.316,0.032 -0.496,0.244 -0.496,0.476 0,0.176 0.1,0.364 0.324,0.492 0.02,0.02 0.028,0.04 0.028,0.06 0,0.044 -0.04,0.088 -0.088,0.088 -0.012,0 -0.024,-0.004 -0.036,-0.008 -0.32,-0.172 -0.468,-0.46 -0.468,-0.74 0,-0.352 0.232,-0.696 0.64,-0.788 -0.056,-0.232 -0.116,-0.468 -0.184,-0.7 -0.428,0.484 -0.852,0.972 -0.852,1.612 z m 1.336,-4.068 c -0.396,0.192 -0.648,0.596 -0.648,1.036 0,0.296 0.072,0.532 0.144,0.776 0.32,-0.388 0.584,-0.792 0.584,-1.296 0,-0.22 -0.016,-0.316 -0.08,-0.516 z"
     id="path2737"
     inkscape:connector-curvature="0"
     style="fill:currentColor;stroke-width:0.004" />
  <g
     id="g2765"
     transform="translate(-14.225688,-4.2613)">
    <line
       id="line2727"
       y2="0"
       x2="8.7642002"
       y1="0"
       x1="0.050000001"
       transform="translate(14.2264,9.6213)"
       style="stroke:currentColor;stroke-width:0.1;stroke-linecap:round;stroke-linejoin:round" />
    <line
       id="line2729"
       y2="0"
       x2="8.7642002"
       y1="0"
       x1="0.050000001"
       transform="translate(14.2264,8.6213)"
       style="stroke:currentColor;stroke-width:0.1;stroke-linecap:round;stroke-linejoin:round" />
    <line
       id="line2731"
       y2="0"
       x2="8.7642002"
       y1="0"
       x1="0.050000001"
       transform="translate(14.2264,7.6213)"
       style="stroke:currentColor;stroke-width:0.1;stroke-linecap:round;stroke-linejoin:round" />
    <line
       id="line2733"
       y2="0"
       x2="8.7642002"
       y1="0"
       x1="0.050000001"
       transform="translate(14.2264,6.6213)"
       style="stroke:currentColor;stroke-width:0.1;stroke-linecap:round;stroke-linejoin:round" />
    <line
       id="line2735"
       y2="0"
       x2="8.7642002"
       y1="0"
       x1="0.050000001"
       transform="translate(14.2264,5.6213)"
       style="stroke:currentColor;stroke-width:0.1;stroke-linecap:round;stroke-linejoin:round" />
    <a
       id="a2741"
       xlink:href="textedit:///Users/jyang/Documents/github/pitlOS/lilypond/075ef5.ly:11:2:3"
       style="color:inherit">
      <path
         id="path2739"
         d="m 220,138 c 56,0 109,-29 109,-91 0,-72 -56,-121 -103,-149 -36,-21 -76,-36 -117,-36 -56,0 -109,29 -109,91 0,72 56,121 103,149 36,21 76,36 117,36 z"
         transform="matrix(0.004,0,0,-0.004,20.0264,6.1213)"
         inkscape:connector-curvature="0"
         style="fill:currentColor" />
    </a>
    <path
       id="path2743"
       d="m 27,41 -1,-66 v -11 c 0,-22 1,-44 4,-66 45,38 93,80 93,139 0,33 -14,67 -43,67 C 49,104 28,74 27,41 Z m -42,-179 -12,595 c 8,5 18,8 27,8 9,0 19,-3 27,-8 L 20,112 c 25,21 58,34 91,34 52,0 89,-48 89,-102 0,-80 -86,-117 -147,-169 -15,-13 -24,-38 -45,-38 -13,0 -23,11 -23,25 z"
       transform="matrix(0.004,0,0,-0.004,18.8764,6.1213)"
       inkscape:connector-curvature="0"
       style="fill:currentColor" />
  </g>
  <text
     font-size="2.2001"
     id="text2747"
     style="font-size:2.20009995px;font-family:'Century Schoolbook L';text-anchor:start;fill:currentColor"
     x="45.525112"
     y="161.33369">
    <tspan
       id="tspan2745" />
  </text>
</svg>
